<mxfile host="app.diagrams.net" modified="2024-03-04T22:21:25.107Z" agent="Mozilla/5.0 (Windows NT 10.0; Win64; x64) AppleWebKit/537.36 (KHTML, like Gecko) Chrome/122.0.0.0 Safari/537.36" etag="fVj5m1zCtDGL4MQeM8X2" version="24.0.1" type="github">
  <diagram id="C5RBs43oDa-KdzZeNtuy" name="Page-1">
    <mxGraphModel dx="1050" dy="557" grid="1" gridSize="10" guides="1" tooltips="1" connect="1" arrows="1" fold="1" page="1" pageScale="1" pageWidth="827" pageHeight="1169" math="0" shadow="0">
      <root>
        <mxCell id="WIyWlLk6GJQsqaUBKTNV-0" />
        <mxCell id="WIyWlLk6GJQsqaUBKTNV-1" parent="WIyWlLk6GJQsqaUBKTNV-0" />
        <mxCell id="_xrYuTKwcw9Jx37gsdrF-22" value="" style="rounded=0;html=1;jettySize=auto;orthogonalLoop=1;fontSize=11;endArrow=block;endFill=0;endSize=8;strokeWidth=1;shadow=0;labelBackgroundColor=none;edgeStyle=orthogonalEdgeStyle;" edge="1" parent="WIyWlLk6GJQsqaUBKTNV-1" source="_xrYuTKwcw9Jx37gsdrF-23" target="_xrYuTKwcw9Jx37gsdrF-26">
          <mxGeometry relative="1" as="geometry" />
        </mxCell>
        <mxCell id="_xrYuTKwcw9Jx37gsdrF-23" value="start" style="rounded=1;whiteSpace=wrap;html=1;fontSize=12;glass=0;strokeWidth=1;shadow=0;" vertex="1" parent="WIyWlLk6GJQsqaUBKTNV-1">
          <mxGeometry x="160" y="80" width="120" height="40" as="geometry" />
        </mxCell>
        <mxCell id="_xrYuTKwcw9Jx37gsdrF-24" value="Yes" style="rounded=0;html=1;jettySize=auto;orthogonalLoop=1;fontSize=11;endArrow=block;endFill=0;endSize=8;strokeWidth=1;shadow=0;labelBackgroundColor=none;edgeStyle=orthogonalEdgeStyle;" edge="1" parent="WIyWlLk6GJQsqaUBKTNV-1" source="_xrYuTKwcw9Jx37gsdrF-26">
          <mxGeometry y="20" relative="1" as="geometry">
            <mxPoint as="offset" />
            <mxPoint x="220" y="280" as="targetPoint" />
          </mxGeometry>
        </mxCell>
        <mxCell id="_xrYuTKwcw9Jx37gsdrF-25" value="No" style="edgeStyle=orthogonalEdgeStyle;rounded=0;html=1;jettySize=auto;orthogonalLoop=1;fontSize=11;endArrow=block;endFill=0;endSize=8;strokeWidth=1;shadow=0;labelBackgroundColor=none;" edge="1" parent="WIyWlLk6GJQsqaUBKTNV-1" source="_xrYuTKwcw9Jx37gsdrF-26" target="_xrYuTKwcw9Jx37gsdrF-27">
          <mxGeometry y="10" relative="1" as="geometry">
            <mxPoint as="offset" />
          </mxGeometry>
        </mxCell>
        <mxCell id="_xrYuTKwcw9Jx37gsdrF-26" value="is the google maps app open" style="rhombus;whiteSpace=wrap;html=1;shadow=0;fontFamily=Helvetica;fontSize=12;align=center;strokeWidth=1;spacing=6;spacingTop=-4;" vertex="1" parent="WIyWlLk6GJQsqaUBKTNV-1">
          <mxGeometry x="170" y="170" width="100" height="80" as="geometry" />
        </mxCell>
        <mxCell id="_xrYuTKwcw9Jx37gsdrF-27" value="open google maps" style="rounded=1;whiteSpace=wrap;html=1;fontSize=12;glass=0;strokeWidth=1;shadow=0;" vertex="1" parent="WIyWlLk6GJQsqaUBKTNV-1">
          <mxGeometry x="320" y="190" width="120" height="40" as="geometry" />
        </mxCell>
        <mxCell id="_xrYuTKwcw9Jx37gsdrF-28" value="No" style="rounded=0;html=1;jettySize=auto;orthogonalLoop=1;fontSize=11;endArrow=block;endFill=0;endSize=8;strokeWidth=1;shadow=0;labelBackgroundColor=none;edgeStyle=orthogonalEdgeStyle;" edge="1" parent="WIyWlLk6GJQsqaUBKTNV-1" source="_xrYuTKwcw9Jx37gsdrF-30" target="_xrYuTKwcw9Jx37gsdrF-31">
          <mxGeometry x="0.3333" y="20" relative="1" as="geometry">
            <mxPoint as="offset" />
          </mxGeometry>
        </mxCell>
        <mxCell id="_xrYuTKwcw9Jx37gsdrF-29" value="no" style="edgeStyle=orthogonalEdgeStyle;rounded=0;html=1;jettySize=auto;orthogonalLoop=1;fontSize=11;endArrow=block;endFill=0;endSize=8;strokeWidth=1;shadow=0;labelBackgroundColor=none;" edge="1" parent="WIyWlLk6GJQsqaUBKTNV-1" source="_xrYuTKwcw9Jx37gsdrF-30" target="_xrYuTKwcw9Jx37gsdrF-32">
          <mxGeometry y="10" relative="1" as="geometry">
            <mxPoint as="offset" />
          </mxGeometry>
        </mxCell>
        <mxCell id="_xrYuTKwcw9Jx37gsdrF-30" value="are paths available?" style="rhombus;whiteSpace=wrap;html=1;shadow=0;fontFamily=Helvetica;fontSize=12;align=center;strokeWidth=1;spacing=6;spacingTop=-4;" vertex="1" parent="WIyWlLk6GJQsqaUBKTNV-1">
          <mxGeometry x="170" y="400" width="100" height="80" as="geometry" />
        </mxCell>
        <mxCell id="_xrYuTKwcw9Jx37gsdrF-31" value="select mode of transport" style="rounded=1;whiteSpace=wrap;html=1;fontSize=12;glass=0;strokeWidth=1;shadow=0;" vertex="1" parent="WIyWlLk6GJQsqaUBKTNV-1">
          <mxGeometry x="160" y="520" width="120" height="40" as="geometry" />
        </mxCell>
        <mxCell id="_xrYuTKwcw9Jx37gsdrF-32" value="select paths" style="rounded=1;whiteSpace=wrap;html=1;fontSize=12;glass=0;strokeWidth=1;shadow=0;" vertex="1" parent="WIyWlLk6GJQsqaUBKTNV-1">
          <mxGeometry x="340" y="420" width="120" height="40" as="geometry" />
        </mxCell>
        <mxCell id="_xrYuTKwcw9Jx37gsdrF-33" value="&lt;div style=&quot;text-align: left;&quot;&gt;specifiy location&lt;/div&gt;&lt;div style=&quot;text-align: left;&quot;&gt;you want to reach&lt;/div&gt;" style="shape=parallelogram;perimeter=parallelogramPerimeter;whiteSpace=wrap;html=1;fixedSize=1;" vertex="1" parent="WIyWlLk6GJQsqaUBKTNV-1">
          <mxGeometry x="160" y="280" width="120" height="60" as="geometry" />
        </mxCell>
        <mxCell id="_xrYuTKwcw9Jx37gsdrF-34" value="" style="endArrow=classic;html=1;rounded=0;" edge="1" parent="WIyWlLk6GJQsqaUBKTNV-1">
          <mxGeometry relative="1" as="geometry">
            <mxPoint x="219.5" y="340" as="sourcePoint" />
            <mxPoint x="219.5" y="400" as="targetPoint" />
          </mxGeometry>
        </mxCell>
        <mxCell id="_xrYuTKwcw9Jx37gsdrF-35" value="" style="endArrow=classic;html=1;rounded=0;" edge="1" parent="WIyWlLk6GJQsqaUBKTNV-1">
          <mxGeometry relative="1" as="geometry">
            <mxPoint x="219.5" y="550" as="sourcePoint" />
            <mxPoint x="220" y="600" as="targetPoint" />
          </mxGeometry>
        </mxCell>
        <mxCell id="_xrYuTKwcw9Jx37gsdrF-36" value="review route options" style="rounded=0;whiteSpace=wrap;html=1;" vertex="1" parent="WIyWlLk6GJQsqaUBKTNV-1">
          <mxGeometry x="160" y="600" width="120" height="60" as="geometry" />
        </mxCell>
        <mxCell id="_xrYuTKwcw9Jx37gsdrF-37" value="" style="endArrow=classic;html=1;rounded=0;" edge="1" parent="WIyWlLk6GJQsqaUBKTNV-1">
          <mxGeometry width="50" height="50" relative="1" as="geometry">
            <mxPoint x="219.5" y="660" as="sourcePoint" />
            <mxPoint x="220" y="720" as="targetPoint" />
          </mxGeometry>
        </mxCell>
        <mxCell id="_xrYuTKwcw9Jx37gsdrF-38" value="follow directions" style="shape=parallelogram;perimeter=parallelogramPerimeter;whiteSpace=wrap;html=1;fixedSize=1;" vertex="1" parent="WIyWlLk6GJQsqaUBKTNV-1">
          <mxGeometry x="160" y="720" width="120" height="60" as="geometry" />
        </mxCell>
        <mxCell id="_xrYuTKwcw9Jx37gsdrF-39" value="" style="endArrow=classic;html=1;rounded=0;" edge="1" parent="WIyWlLk6GJQsqaUBKTNV-1">
          <mxGeometry width="50" height="50" relative="1" as="geometry">
            <mxPoint x="219.5" y="780" as="sourcePoint" />
            <mxPoint x="220" y="840" as="targetPoint" />
          </mxGeometry>
        </mxCell>
        <mxCell id="_xrYuTKwcw9Jx37gsdrF-40" value="are you on the right route?" style="rhombus;whiteSpace=wrap;html=1;" vertex="1" parent="WIyWlLk6GJQsqaUBKTNV-1">
          <mxGeometry x="180" y="850" width="80" height="80" as="geometry" />
        </mxCell>
        <mxCell id="_xrYuTKwcw9Jx37gsdrF-41" value="" style="endArrow=classic;html=1;rounded=0;" edge="1" parent="WIyWlLk6GJQsqaUBKTNV-1">
          <mxGeometry width="50" height="50" relative="1" as="geometry">
            <mxPoint x="260" y="890" as="sourcePoint" />
            <mxPoint x="320" y="890" as="targetPoint" />
          </mxGeometry>
        </mxCell>
        <mxCell id="_xrYuTKwcw9Jx37gsdrF-42" value="arrival" style="rounded=1;whiteSpace=wrap;html=1;" vertex="1" parent="WIyWlLk6GJQsqaUBKTNV-1">
          <mxGeometry x="320" y="870" width="110" height="40" as="geometry" />
        </mxCell>
        <mxCell id="_xrYuTKwcw9Jx37gsdrF-43" value="" style="endArrow=classic;html=1;rounded=0;" edge="1" parent="WIyWlLk6GJQsqaUBKTNV-1">
          <mxGeometry width="50" height="50" relative="1" as="geometry">
            <mxPoint x="170" y="880" as="sourcePoint" />
            <mxPoint x="140" y="320" as="targetPoint" />
            <Array as="points">
              <mxPoint x="80" y="880" />
              <mxPoint x="80" y="320" />
            </Array>
          </mxGeometry>
        </mxCell>
        <mxCell id="_xrYuTKwcw9Jx37gsdrF-44" style="edgeStyle=orthogonalEdgeStyle;rounded=0;orthogonalLoop=1;jettySize=auto;html=1;" edge="1" parent="WIyWlLk6GJQsqaUBKTNV-1" source="_xrYuTKwcw9Jx37gsdrF-33" target="_xrYuTKwcw9Jx37gsdrF-33">
          <mxGeometry relative="1" as="geometry" />
        </mxCell>
        <mxCell id="_xrYuTKwcw9Jx37gsdrF-45" value="no" style="text;html=1;align=center;verticalAlign=middle;resizable=0;points=[];autosize=1;strokeColor=none;fillColor=none;" vertex="1" parent="WIyWlLk6GJQsqaUBKTNV-1">
          <mxGeometry x="120" y="848" width="40" height="30" as="geometry" />
        </mxCell>
        <mxCell id="_xrYuTKwcw9Jx37gsdrF-46" value="" style="endArrow=classic;html=1;rounded=0;exitX=0.5;exitY=1;exitDx=0;exitDy=0;" edge="1" parent="WIyWlLk6GJQsqaUBKTNV-1" source="_xrYuTKwcw9Jx37gsdrF-42">
          <mxGeometry width="50" height="50" relative="1" as="geometry">
            <mxPoint x="219.5" y="930" as="sourcePoint" />
            <mxPoint x="290" y="1040" as="targetPoint" />
            <Array as="points">
              <mxPoint x="375" y="1040" />
            </Array>
          </mxGeometry>
        </mxCell>
        <mxCell id="_xrYuTKwcw9Jx37gsdrF-47" value="end." style="ellipse;whiteSpace=wrap;html=1;" vertex="1" parent="WIyWlLk6GJQsqaUBKTNV-1">
          <mxGeometry x="190" y="1010" width="100" height="60" as="geometry" />
        </mxCell>
        <mxCell id="_xrYuTKwcw9Jx37gsdrF-48" value="yes" style="text;html=1;align=center;verticalAlign=middle;resizable=0;points=[];autosize=1;strokeColor=none;fillColor=none;" vertex="1" parent="WIyWlLk6GJQsqaUBKTNV-1">
          <mxGeometry x="260" y="858" width="40" height="30" as="geometry" />
        </mxCell>
      </root>
    </mxGraphModel>
  </diagram>
</mxfile>
